<svg width="173" height="58" viewBox="0 0 173 58" fill="none" xmlns="http://www.w3.org/2000/svg">
<path d="M12.6476 15.5013L5.98393 19.6469C5.1045 20.194 4.56908 21.1557 4.56712 22.1916L4.52347 45.2669C4.51979 47.2113 6.65637 48.4015 8.30701 47.3745L12.5924 44.7086C16.7367 42.1303 22.0214 42.2782 26.0172 45.0842C30.0747 47.9337 35.454 48.0383 39.6171 45.3489L45.7776 41.3691C46.5975 40.8394 47.0933 39.9306 47.0952 38.9544L47.1393 15.667C47.1428 13.7913 45.0658 12.6574 43.4905 13.675L39.6724 16.1416C35.5092 18.8311 30.13 18.7264 26.0724 15.877C22.0767 13.071 16.7919 12.9231 12.6476 15.5013Z" fill="#43F5D5"/>
<path d="M8.13296 12.4911L1.46928 16.6367C0.589851 17.1838 0.0544354 18.1454 0.0524755 19.1813L0.00881882 42.2567C0.00514026 44.201 2.14172 45.3912 3.79237 44.3643L8.07771 41.6983C12.222 39.1201 17.5068 39.2679 21.5025 42.074C25.5601 44.9234 30.9393 45.0281 35.1025 42.3386L41.263 38.3588C42.0828 37.8292 42.5787 36.9204 42.5805 35.9441L42.6246 12.6568C42.6282 10.781 40.5511 9.64711 38.9759 10.6648L35.1577 13.1314C30.9946 15.8209 25.6153 15.7162 21.5578 12.8667C17.562 10.0607 12.2773 9.91281 8.13296 12.4911Z" fill="#776BFF"/>
<path d="M57.2237 44.4146L66.3005 20.2733C66.7073 19.2309 67.2667 18.4681 67.9786 17.985C68.6905 17.502 69.5168 17.2604 70.4576 17.2604C71.3983 17.2604 72.2246 17.502 72.9365 17.985C73.6738 18.4427 74.2332 19.1927 74.6146 20.2352L83.7295 44.4146H79.725L77.3986 37.9693H63.4402L61.0757 44.4146H57.2237ZM64.5843 34.7275H76.2926L71.5254 21.4937C71.3983 21.1632 71.2585 20.9089 71.1059 20.731C70.9533 20.553 70.7372 20.464 70.4576 20.464C70.2033 20.464 69.9999 20.553 69.8474 20.731C69.6948 20.9089 69.5677 21.1632 69.466 21.4937L64.5843 34.7275ZM93.8062 44.8722C92.0519 44.8722 90.4755 44.5163 89.0772 43.8043C87.7042 43.067 86.6236 42.05 85.8354 40.7533C85.0727 39.4566 84.6913 37.9438 84.6913 36.2149V24.9643H88.2381V36.1768C88.2381 37.3463 88.4924 38.3634 89.0009 39.2278C89.5094 40.0668 90.1831 40.7152 91.0222 41.1728C91.8866 41.6305 92.8019 41.8593 93.7681 41.8593C94.7597 41.8593 95.675 41.6305 96.514 41.1728C97.3785 40.7152 98.065 40.0668 98.5735 39.2278C99.1074 38.3634 99.3744 37.3463 99.3744 36.1768V24.9643H102.921V36.2149C102.921 37.9438 102.527 39.4566 101.739 40.7533C100.951 42.05 99.8702 43.067 98.4972 43.8043C97.1242 44.5163 95.5606 44.8722 93.8062 44.8722ZM106.469 44.4146V30.4942C106.469 28.7653 106.952 27.4178 107.918 26.4516C108.91 25.4601 110.27 24.9643 111.999 24.9643H116.003V27.9772H112.647C111.808 27.9772 111.147 28.2187 110.664 28.7018C110.206 29.1849 109.978 29.8586 109.978 30.7231V44.4146H106.469ZM126.492 44.8722C124.509 44.8722 122.755 44.4273 121.229 43.5374C119.704 42.6221 118.496 41.4017 117.606 39.8762C116.716 38.3252 116.271 36.5963 116.271 34.6894C116.271 32.7825 116.716 31.0663 117.606 29.5408C118.496 27.9899 119.704 26.7695 121.229 25.8796C122.755 24.9643 124.509 24.5066 126.492 24.5066C128.476 24.5066 130.23 24.9643 131.755 25.8796C133.306 26.7695 134.514 27.9772 135.379 29.5027C136.268 31.0282 136.713 32.7571 136.713 34.6894C136.713 36.5963 136.268 38.3252 135.379 39.8762C134.514 41.4017 133.306 42.6221 131.755 43.5374C130.23 44.4273 128.476 44.8722 126.492 44.8722ZM126.492 41.8593C127.84 41.8593 129.01 41.5415 130.001 40.9059C130.993 40.2702 131.768 39.4185 132.328 38.3506C132.887 37.2574 133.167 36.0369 133.167 34.6894C133.167 33.3419 132.887 32.1342 132.328 31.0663C131.768 29.973 130.993 29.1086 130.001 28.4729C129.01 27.8373 127.84 27.5195 126.492 27.5195C125.17 27.5195 124.001 27.8373 122.984 28.4729C121.992 29.1086 121.217 29.973 120.657 31.0663C120.098 32.1342 119.818 33.3419 119.818 34.6894C119.818 36.0369 120.098 37.2574 120.657 38.3506C121.217 39.4185 121.992 40.2702 122.984 40.9059C124.001 41.5415 125.17 41.8593 126.492 41.8593ZM139.191 44.4146V30.4942C139.191 28.7653 139.674 27.4178 140.641 26.4516C141.632 25.4601 142.992 24.9643 144.721 24.9643H148.726V27.9772H145.37C144.531 27.9772 143.87 28.2187 143.387 28.7018C142.929 29.1849 142.7 29.8586 142.7 30.7231V44.4146H139.191ZM158.147 44.8722C156.266 44.8722 154.638 44.4273 153.265 43.5374C151.893 42.6221 150.837 41.389 150.1 39.838C149.363 38.2871 148.994 36.5709 148.994 34.6894C148.994 32.7825 149.401 31.0663 150.214 29.5408C151.028 27.9899 152.198 26.7695 153.723 25.8796C155.249 24.9643 157.079 24.5066 159.215 24.5066C161.274 24.5066 163.041 24.9516 164.516 25.8414C165.991 26.7313 167.122 27.939 167.91 29.4645C168.724 30.99 169.131 32.6935 169.131 34.575V44.4146H165.584V40.4482H165.508C165.126 41.1855 164.605 41.8975 163.944 42.5839C163.308 43.245 162.508 43.7916 161.541 44.2239C160.575 44.6561 159.444 44.8722 158.147 44.8722ZM159.062 41.8593C160.334 41.8593 161.452 41.5542 162.419 40.944C163.41 40.3084 164.173 39.4439 164.707 38.3506C165.266 37.2319 165.546 35.9861 165.546 34.6131C165.546 33.2656 165.279 32.0579 164.745 30.99C164.236 29.9222 163.499 29.0832 162.533 28.4729C161.567 27.8373 160.435 27.5195 159.139 27.5195C157.766 27.5195 156.583 27.8373 155.592 28.4729C154.626 29.1086 153.876 29.973 153.342 31.0663C152.833 32.1342 152.579 33.3546 152.579 34.7275C152.579 36.0497 152.833 37.2574 153.342 38.3506C153.85 39.4185 154.588 40.2702 155.554 40.9059C156.52 41.5415 157.689 41.8593 159.062 41.8593Z" fill="black"/>
</svg>
