<svg width="48" height="42" viewBox="0 0 48 42" fill="none" xmlns="http://www.w3.org/2000/svg">
<path d="M12.6476 7.50132L5.98393 11.6469C5.1045 12.194 4.56908 13.1557 4.56712 14.1916L4.52347 37.2669C4.51979 39.2113 6.65637 40.4015 8.30701 39.3745L12.5924 36.7086C16.7367 34.1303 22.0214 34.2782 26.0172 37.0842C30.0747 39.9337 35.454 40.0383 39.6171 37.3489L45.7776 33.3691C46.5975 32.8394 47.0933 31.9306 47.0952 30.9544L47.1393 7.66703C47.1428 5.7913 45.0658 4.65736 43.4905 5.67502L39.6724 8.14163C35.5092 10.8311 30.13 10.7264 26.0724 7.877C22.0767 5.07095 16.7919 4.92307 12.6476 7.50132Z" fill="#43F5D5"/>
<path d="M8.13296 4.49106L1.46928 8.63667C0.589851 9.18378 0.0544354 10.1454 0.0524755 11.1813L0.00881882 34.2567C0.00514026 36.201 2.14172 37.3912 3.79237 36.3643L8.07771 33.6983C12.222 31.1201 17.5068 31.2679 21.5025 34.074C25.5601 36.9234 30.9393 37.0281 35.1025 34.3386L41.263 30.3588C42.0828 29.8292 42.5787 28.9204 42.5805 27.9441L42.6246 4.65677C42.6282 2.78105 40.5511 1.64711 38.9759 2.66477L35.1577 5.13138C30.9946 7.82085 25.6153 7.71618 21.5578 4.86674C17.562 2.0607 12.2773 1.91281 8.13296 4.49106Z" fill="#776BFF"/>
</svg>
