<svg width="113" height="33" viewBox="0 0 113 33" fill="none" xmlns="http://www.w3.org/2000/svg">
<path d="M45.044 25L50.28 11.074C50.5147 10.4727 50.8373 10.0327 51.248 9.754C51.6587 9.47533 52.1353 9.336 52.678 9.336C53.2207 9.336 53.6973 9.47533 54.108 9.754C54.5333 10.018 54.856 10.4507 55.076 11.052L60.334 25H58.024L56.682 21.282H48.63L47.266 25H45.044ZM49.29 19.412H56.044L53.294 11.778C53.2207 11.5873 53.14 11.4407 53.052 11.338C52.964 11.2353 52.8393 11.184 52.678 11.184C52.5313 11.184 52.414 11.2353 52.326 11.338C52.238 11.4407 52.1647 11.5873 52.106 11.778L49.29 19.412ZM66.1468 25.264C65.1348 25.264 64.2255 25.0587 63.4188 24.648C62.6268 24.2227 62.0035 23.636 61.5488 22.888C61.1088 22.14 60.8888 21.2673 60.8888 20.27V13.78H62.9348V20.248C62.9348 20.9227 63.0815 21.5093 63.3748 22.008C63.6681 22.492 64.0568 22.866 64.5408 23.13C65.0395 23.394 65.5675 23.526 66.1248 23.526C66.6968 23.526 67.2248 23.394 67.7088 23.13C68.2075 22.866 68.6035 22.492 68.8968 22.008C69.2048 21.5093 69.3588 20.9227 69.3588 20.248V13.78H71.4048V20.27C71.4048 21.2673 71.1775 22.14 70.7228 22.888C70.2681 23.636 69.6448 24.2227 68.8528 24.648C68.0608 25.0587 67.1588 25.264 66.1468 25.264ZM73.4513 25V16.97C73.4513 15.9727 73.73 15.1953 74.2873 14.638C74.8593 14.066 75.644 13.78 76.6413 13.78H78.9513V15.518H77.0153C76.5313 15.518 76.15 15.6573 75.8713 15.936C75.6073 16.2147 75.4753 16.6033 75.4753 17.102V25H73.4513ZM85.002 25.264C83.858 25.264 82.846 25.0073 81.966 24.494C81.086 23.966 80.3893 23.262 79.876 22.382C79.3627 21.4873 79.106 20.49 79.106 19.39C79.106 18.29 79.3627 17.3 79.876 16.42C80.3893 15.5253 81.086 14.8213 81.966 14.308C82.846 13.78 83.858 13.516 85.002 13.516C86.146 13.516 87.158 13.78 88.038 14.308C88.9327 14.8213 89.6294 15.518 90.128 16.398C90.6414 17.278 90.898 18.2753 90.898 19.39C90.898 20.49 90.6414 21.4873 90.128 22.382C89.6294 23.262 88.9327 23.966 88.038 24.494C87.158 25.0073 86.146 25.264 85.002 25.264ZM85.002 23.526C85.7794 23.526 86.454 23.3427 87.026 22.976C87.598 22.6093 88.0454 22.118 88.368 21.502C88.6907 20.8713 88.852 20.1673 88.852 19.39C88.852 18.6127 88.6907 17.916 88.368 17.3C88.0454 16.6693 87.598 16.1707 87.026 15.804C86.454 15.4373 85.7794 15.254 85.002 15.254C84.2394 15.254 83.5647 15.4373 82.978 15.804C82.406 16.1707 81.9587 16.6693 81.636 17.3C81.3133 17.916 81.152 18.6127 81.152 19.39C81.152 20.1673 81.3133 20.8713 81.636 21.502C81.9587 22.118 82.406 22.6093 82.978 22.976C83.5647 23.3427 84.2394 23.526 85.002 23.526ZM92.3275 25V16.97C92.3275 15.9727 92.6062 15.1953 93.1635 14.638C93.7355 14.066 94.5202 13.78 95.5175 13.78H97.8275V15.518H95.8915C95.4075 15.518 95.0262 15.6573 94.7475 15.936C94.4835 16.2147 94.3515 16.6033 94.3515 17.102V25H92.3275ZM103.262 25.264C102.177 25.264 101.238 25.0073 100.446 24.494C99.6542 23.966 99.0455 23.2547 98.6202 22.36C98.1949 21.4653 97.9822 20.4753 97.9822 19.39C97.9822 18.29 98.2169 17.3 98.6862 16.42C99.1555 15.5253 99.8302 14.8213 100.71 14.308C101.59 13.78 102.646 13.516 103.878 13.516C105.066 13.516 106.086 13.7727 106.936 14.286C107.787 14.7993 108.44 15.496 108.894 16.376C109.364 17.256 109.598 18.2387 109.598 19.324V25H107.552V22.712H107.508C107.288 23.1373 106.988 23.548 106.606 23.944C106.24 24.3253 105.778 24.6407 105.22 24.89C104.663 25.1393 104.01 25.264 103.262 25.264ZM103.79 23.526C104.524 23.526 105.169 23.35 105.726 22.998C106.298 22.6313 106.738 22.1327 107.046 21.502C107.369 20.8567 107.53 20.138 107.53 19.346C107.53 18.5687 107.376 17.872 107.068 17.256C106.775 16.64 106.35 16.156 105.792 15.804C105.235 15.4373 104.582 15.254 103.834 15.254C103.042 15.254 102.36 15.4373 101.788 15.804C101.231 16.1707 100.798 16.6693 100.49 17.3C100.197 17.916 100.05 18.62 100.05 19.412C100.05 20.1747 100.197 20.8713 100.49 21.502C100.784 22.118 101.209 22.6093 101.766 22.976C102.324 23.3427 102.998 23.526 103.79 23.526Z" fill="#121111"/>
<path d="M10.417 7.53821L5.18964 10.4943C4.38937 10.9469 3.89382 11.7944 3.89191 12.7137L3.8581 28.9585C3.85473 30.5771 5.59924 31.5971 7.00815 30.8004L10.3726 28.8978C13.7416 26.9926 17.8873 27.1034 21.1497 29.186C24.4638 31.3015 28.6843 31.3799 32.0747 29.389L36.8989 26.5561C37.6463 26.1172 38.1061 25.3159 38.1079 24.4492L38.1421 8.01623C38.1453 6.45684 36.4519 5.48511 35.1072 6.27475L32.1192 8.02943C28.7288 10.0204 24.5083 9.94195 21.1942 7.82641C17.9318 5.74386 13.7861 5.633 10.417 7.53821Z" fill="#43F5D5"/>
<path d="M6.56644 4.9718L1.33905 7.92792C0.538784 8.38047 0.043239 9.22797 0.0413255 10.1473L0.00751485 26.3921C0.00414604 28.0107 1.74865 29.0307 3.15757 28.234L6.52198 26.3314C9.89102 24.4262 14.0367 24.537 17.2991 26.6196C20.6132 28.7351 24.8337 28.8135 28.2241 26.8226L33.0483 23.9897C33.7957 23.5508 34.2555 22.7495 34.2573 21.8828L34.2915 5.44982C34.2947 3.89044 32.6013 2.9187 31.2566 3.70834L28.2686 5.46302C24.8782 7.45397 20.6577 7.37555 17.3436 5.26C14.0812 3.17745 9.93549 3.06659 6.56644 4.9718Z" fill="#776BFF"/>
</svg>
