<svg width="147" height="28" viewBox="0 0 147 28" fill="none" xmlns="http://www.w3.org/2000/svg">
<path fill-rule="evenodd" clip-rule="evenodd" d="M20 1.55826C20 0.697659 20.6977 0 21.5583 0H26.4417C27.3023 0 28 0.69766 28 1.55827V9.22862C28 10.6169 29.6785 11.3121 30.6601 10.3305L36.6154 4.37516C37.224 3.76662 38.2106 3.76662 38.8192 4.37516L42.3854 7.94143C42.994 8.54997 42.994 9.53661 42.3854 10.1452L35.6855 16.8451C34.7039 17.8267 35.3991 19.5052 36.7874 19.5052H44.4419C45.3025 19.5052 46.0001 20.2028 46.0001 21.0634V26.1082C46.0001 26.9688 45.3025 27.6665 44.4419 27.6665H29.01C28.1494 27.6665 27.4518 26.9688 27.4518 26.1082V23.1408C27.4518 22.7275 27.2876 22.3312 26.9954 22.039L26.4128 21.4564C26.1206 21.1642 25.7242 21 25.3109 21H21.5905C20.7299 21 20.0322 21.6977 20.0322 22.5583V26.1082C20.0322 26.9688 19.3345 27.6665 18.4739 27.6665H8.97756C8.11696 27.6665 7.4193 26.9688 7.4193 26.1082V22.7265C7.4193 21.8659 6.72164 21.1683 5.86103 21.1683H1.55826C0.697659 21.1683 0 20.4706 0 19.61V1.77326C0 0.912652 0.697659 0.214994 1.55826 0.214994H6.60174C7.46234 0.214994 8.16 0.912653 8.16 1.77326V17.9469C8.16 18.8075 8.85766 19.5052 9.71826 19.5052H18.4417C19.3023 19.5052 20 18.8075 20 17.9469V1.55826Z" fill="black"/>
<path d="M68.7854 24.265V4.06641H72.7181V20.757H82.9118V24.265H68.7854Z" fill="black"/>
<path d="M129.885 7.84189C129.806 7.73178 129.759 7.60593 129.727 7.48008C129.554 6.70926 129.727 6.08003 130.231 5.57663C130.734 5.08897 131.363 4.91593 132.134 5.07324C132.26 5.1047 132.402 5.1519 132.512 5.23055C133.157 5.65529 133.487 6.2216 133.487 6.91377C133.487 7.43289 133.298 7.88909 132.921 8.2509C132.543 8.62844 132.087 8.80148 131.568 8.80148C130.876 8.81721 130.309 8.50259 129.885 7.84189Z" fill="black"/>
<path d="M86.2224 7.82505C86.1438 7.71493 86.0966 7.58908 86.0651 7.46324C85.8921 6.69242 86.0651 6.06318 86.5685 5.55979C87.0719 5.07213 87.7012 4.89909 88.472 5.0564C88.5978 5.08786 88.7394 5.13505 88.8495 5.21371C89.4945 5.63844 89.8248 6.20476 89.8248 6.89692C89.8248 7.41604 89.6361 7.87224 89.2585 8.23405C88.881 8.6116 88.4248 8.78464 87.9057 8.78464C87.2135 8.80037 86.6472 8.48575 86.2224 7.82505Z" fill="black"/>
<path d="M133.455 11.4915H129.711V24.1706H133.455V11.4915Z" fill="black"/>
<path d="M89.744 11.4915H86V24.1706H89.744V11.4915Z" fill="black"/>
<path d="M93.9392 24.2649V9.00587H97.6674V10.6419L97.7304 10.6734C99.2248 9.33622 100.892 8.65979 102.749 8.65979C104.463 8.65979 105.8 9.19464 106.776 10.2643C107.641 11.1925 108.081 12.6869 108.081 14.7634V24.2492H104.337V15.4084C104.337 14.1499 104.133 13.2847 103.724 12.797C103.268 12.2464 102.591 11.9633 101.71 11.9633C100.216 11.9633 98.8945 12.6083 97.7146 13.8825V24.2334H93.9392V24.2649Z" fill="black"/>
<path d="M112.423 24.1705V4.00342H116.167V15.487L116.23 15.5185L122.302 8.91148H126.77L120.383 15.7387L127.352 24.1705H122.727L116.214 16.1477L116.151 16.1792V24.1863H112.423V24.1705Z" fill="black"/>
<path d="M140.188 23.0222C139.355 22.1413 138.946 20.6783 138.946 18.649V12.105H136.287V8.91157H138.946V4.85298L142.69 4.20801V8.9273H147V12.1207H142.69V18.1299C142.69 19.121 142.831 19.8918 143.114 20.4424C143.398 20.9929 143.932 21.2604 144.703 21.2604C145.443 21.2604 146.213 21.0401 147 20.6154V23.8088C146.198 24.2807 145.159 24.5167 143.901 24.5167C142.328 24.5167 141.085 24.0133 140.188 23.0222Z" fill="black"/>
</svg>
