<svg width="113" height="28" viewBox="0 0 113 28" fill="none" xmlns="http://www.w3.org/2000/svg">
<path d="M0.223737 27.4146L9.30054 3.27332C9.70734 2.23088 10.2667 1.46813 10.9786 0.985048C11.6905 0.501969 12.5168 0.26043 13.4576 0.26043C14.3983 0.26043 15.2246 0.501969 15.9365 0.985048C16.6738 1.4427 17.2332 2.19275 17.6146 3.23518L26.7295 27.4146H22.725L20.3986 20.9693H6.4402L4.07566 27.4146H0.223737ZM7.58433 17.7275H19.2926L14.5254 4.49373C14.3983 4.1632 14.2585 3.90895 14.1059 3.73097C13.9533 3.55299 13.7372 3.46401 13.4576 3.46401C13.2033 3.46401 12.9999 3.55299 12.8474 3.73097C12.6948 3.90895 12.5677 4.1632 12.466 4.49373L7.58433 17.7275ZM36.8062 27.8722C35.0519 27.8722 33.4755 27.5163 32.0772 26.8043C30.7042 26.067 29.6236 25.05 28.8354 23.7533C28.0727 22.4566 27.6913 20.9438 27.6913 19.2149V7.96427H31.2381V19.1768C31.2381 20.3463 31.4924 21.3634 32.0009 22.2278C32.5094 23.0668 33.1831 23.7152 34.0222 24.1728C34.8866 24.6305 35.8019 24.8593 36.7681 24.8593C37.7597 24.8593 38.675 24.6305 39.514 24.1728C40.3785 23.7152 41.065 23.0668 41.5735 22.2278C42.1074 21.3634 42.3744 20.3463 42.3744 19.1768V7.96427H45.9212V19.2149C45.9212 20.9438 45.5271 22.4566 44.7389 23.7533C43.9507 25.05 42.8702 26.067 41.4972 26.8043C40.1242 27.5163 38.5606 27.8722 36.8062 27.8722ZM49.4689 27.4146V13.4942C49.4689 11.7653 49.952 10.4178 50.9181 9.45164C51.9097 8.46006 53.27 7.96427 54.9989 7.96427H59.0033V10.9772H55.6472C54.8082 10.9772 54.1471 11.2187 53.664 11.7018C53.2064 12.1849 52.9776 12.8586 52.9776 13.7231V27.4146H49.4689ZM69.4924 27.8722C67.5093 27.8722 65.7549 27.4273 64.2294 26.5374C62.7039 25.6221 61.4962 24.4017 60.6063 22.8762C59.7164 21.3252 59.2715 19.5963 59.2715 17.6894C59.2715 15.7825 59.7164 14.0663 60.6063 12.5408C61.4962 10.9899 62.7039 9.76946 64.2294 8.87957C65.7549 7.96427 67.5093 7.50661 69.4924 7.50661C71.4756 7.50661 73.2299 7.96427 74.7554 8.87957C76.3064 9.76946 77.5141 10.9772 78.3785 12.5027C79.2684 14.0282 79.7134 15.7571 79.7134 17.6894C79.7134 19.5963 79.2684 21.3252 78.3785 22.8762C77.5141 24.4017 76.3064 25.6221 74.7554 26.5374C73.2299 27.4273 71.4756 27.8722 69.4924 27.8722ZM69.4924 24.8593C70.84 24.8593 72.0095 24.5415 73.0011 23.9059C73.9927 23.2702 74.7682 22.4185 75.3275 21.3506C75.8869 20.2574 76.1665 19.0369 76.1665 17.6894C76.1665 16.3419 75.8869 15.1342 75.3275 14.0663C74.7682 12.973 73.9927 12.1086 73.0011 11.4729C72.0095 10.8373 70.84 10.5195 69.4924 10.5195C68.1703 10.5195 67.0008 10.8373 65.9838 11.4729C64.9922 12.1086 64.2167 12.973 63.6573 14.0663C63.098 15.1342 62.8183 16.3419 62.8183 17.6894C62.8183 19.0369 63.098 20.2574 63.6573 21.3506C64.2167 22.4185 64.9922 23.2702 65.9838 23.9059C67.0008 24.5415 68.1703 24.8593 69.4924 24.8593ZM82.1914 27.4146V13.4942C82.1914 11.7653 82.6745 10.4178 83.6407 9.45164C84.6322 8.46006 85.9925 7.96427 87.7214 7.96427H91.7259V10.9772H88.3697C87.5307 10.9772 86.8697 11.2187 86.3866 11.7018C85.9289 12.1849 85.7001 12.8586 85.7001 13.7231V27.4146H82.1914ZM101.147 27.8722C99.2656 27.8722 97.6384 27.4273 96.2655 26.5374C94.8925 25.6221 93.8374 24.389 93.1 22.838C92.3627 21.2871 91.994 19.5709 91.994 17.6894C91.994 15.7825 92.4008 14.0663 93.2144 12.5408C94.0281 10.9899 95.1976 9.76946 96.7231 8.87957C98.2486 7.96427 100.079 7.50661 102.215 7.50661C104.274 7.50661 106.041 7.95155 107.516 8.84144C108.991 9.73132 110.122 10.939 110.91 12.4645C111.724 13.99 112.131 15.6935 112.131 17.575V27.4146H108.584V23.4482H108.508C108.126 24.1855 107.605 24.8975 106.944 25.5839C106.308 26.245 105.508 26.7916 104.541 27.2239C103.575 27.6561 102.444 27.8722 101.147 27.8722ZM102.062 24.8593C103.334 24.8593 104.452 24.5542 105.419 23.944C106.41 23.3084 107.173 22.4439 107.707 21.3506C108.266 20.2319 108.546 18.9861 108.546 17.6131C108.546 16.2656 108.279 15.0579 107.745 13.99C107.236 12.9222 106.499 12.0832 105.533 11.4729C104.567 10.8373 103.435 10.5195 102.139 10.5195C100.766 10.5195 99.5835 10.8373 98.5919 11.4729C97.6257 12.1086 96.8757 12.973 96.3417 14.0663C95.8332 15.1342 95.579 16.3546 95.579 17.7275C95.579 19.0497 95.8332 20.2574 96.3417 21.3506C96.8502 22.4185 97.5876 23.2702 98.5537 23.9059C99.5199 24.5415 100.689 24.8593 102.062 24.8593Z" fill="black"/>
</svg>
