<svg width="1440" height="640" viewBox="0 0 1440 640" fill="none" xmlns="http://www.w3.org/2000/svg">
<rect width="1440" height="640" fill="url(#paint0_radial_829_26)"/>
<path opacity="0.8" d="M595.348 192.41C598.111 192.4 600.104 194.109 600.113 196.57C600.104 199.031 598.111 200.74 595.348 200.75C592.594 200.74 590.572 199.031 590.582 196.57C590.572 194.109 592.594 192.4 595.348 192.41ZM589.742 203.387C592.926 203.387 597.34 203.357 601.168 202.801L601.305 204.148C597.35 204.91 593.102 204.93 589.977 204.93L589.742 203.387ZM592.418 196.57C592.398 198.123 593.648 199.129 595.348 199.129C597.047 199.129 598.297 198.123 598.297 196.57C598.297 195.037 597.047 194.012 595.348 194.012C593.648 194.012 592.398 195.037 592.418 196.57ZM602.262 208.699V191.16H604.117V208.699H602.262ZM616.109 192.84V204.344H607.906V192.84H616.109ZM609.742 202.84H614.312V194.305H609.742V202.84ZM619.566 208.699V191.16H621.422V208.699H619.566ZM630.289 202.723C630.289 204.227 631.031 205.818 632.623 206.766C634.225 205.74 635.016 204.07 635.016 202.723V201.883H636.832V202.723C636.822 204.539 638.023 206.297 640.309 207.039L639.391 208.406C637.662 207.811 636.48 206.639 635.875 205.213C635.318 206.619 634.273 207.898 632.672 208.562C630.992 207.928 629.928 206.688 629.391 205.262C628.756 206.639 627.604 207.801 625.953 208.406L625.016 207.039C627.262 206.238 628.482 204.412 628.492 202.723V201.883H630.289V202.723ZM624.566 196.277C624.576 193.826 626.549 192.146 629.234 192.137C631.91 192.146 633.883 193.826 633.883 196.277C633.883 198.699 631.91 200.379 629.234 200.379C626.549 200.379 624.576 198.699 624.566 196.277ZM626.383 196.277C626.373 197.801 627.574 198.836 629.234 198.836C630.875 198.836 632.066 197.801 632.066 196.277C632.066 194.744 630.875 193.709 629.234 193.719C627.574 193.709 626.373 194.744 626.383 196.277ZM636.871 201.141V191.18H638.727V201.141H636.871ZM655.66 196.277V197.762H643.609V191.785H645.445V196.277H655.66ZM641.48 201.453V199.969H657.496V201.453H641.48ZM643.473 208.25V203.113H645.328V206.727H655.777V208.25H643.473ZM679.684 204.91V206.473H663.668V204.91H679.684ZM665.035 194.363V192.84H678.219V194.363H675.543V200.203H678.16V201.688H665.074V200.203H667.691V194.363H665.035ZM669.527 200.203H673.727V194.363H669.527V200.203ZM696.969 205.008V206.57H680.953V205.008H688.004V201.941H682.906V196.375H693.18V193.914H682.867V192.391H695.016V197.859H684.742V200.418H695.426V201.941H689.84V205.008H696.969ZM709.723 191.531V201.707H707.965V197.117H705.523V195.613H707.965V191.531H709.723ZM698.199 200.047C700.523 199.119 701.744 196.941 701.734 194.91V194.051H698.629V192.547H706.461V194.051H703.531V194.91C703.531 196.795 704.693 198.787 706.91 199.695L705.973 201.121C704.381 200.467 703.277 199.266 702.672 197.83C702.047 199.441 700.885 200.799 699.195 201.512L698.199 200.047ZM701.266 204.07V202.566H713.16V208.66H711.324V204.07H701.266ZM711.402 201.844V191.16H713.16V201.844H711.402ZM729.723 200.477V201.961H717.535V192.605H729.547V194.109H719.41V196.473H729.176V197.938H719.41V200.477H729.723ZM715.523 206.453V204.93H731.539V206.453H715.523ZM748.805 199.188V200.613H732.789V199.188H748.805ZM734.684 203.172V201.844H746.832V205.691H736.559V207.137H747.379V208.445H734.703V204.461H744.996V203.172H734.684ZM734.801 192.918V191.609H746.793V195.398H736.676V196.727H747.086V198.035H734.84V194.168H744.938V192.918H734.801ZM768.609 191.16V198.25H771.422V199.793H768.609V208.66H766.773V191.16H768.609ZM754.879 195.418V193.895H759.195V191.395H761.051V193.895H765.25V195.418H754.879ZM755.777 200.77C755.777 198.387 757.613 196.707 760.133 196.707C762.643 196.707 764.479 198.387 764.488 200.77C764.479 203.172 762.643 204.842 760.133 204.852C757.613 204.842 755.777 203.172 755.777 200.77ZM757.555 200.77C757.545 202.293 758.639 203.309 760.133 203.289C761.617 203.309 762.701 202.293 762.711 200.77C762.701 199.275 761.617 198.24 760.133 198.23C758.639 198.24 757.545 199.275 757.555 200.77ZM786.422 192.84V194.559C786.412 196.717 786.412 199.139 785.758 202.723L783.883 202.527C784.557 199.139 784.557 196.658 784.566 194.559V194.344H773.941V192.84H786.422ZM772.262 206.297V204.754H778.336V198.582H780.172V204.754H788.219V206.297H772.262ZM804.059 191.18V200.887H802.203V191.18H804.059ZM789.605 199.09C792.34 198.191 794.01 195.926 794.02 193.504V191.805H795.914V193.504C795.904 195.818 797.584 197.957 800.27 198.777L799.371 200.242C797.32 199.578 795.777 198.201 794.977 196.434C794.186 198.338 792.623 199.842 790.523 200.555L789.605 199.09ZM792.164 208.445V206.941H794.664V203.328H792.32V201.844H804.176V203.328H801.871V206.941H804.352V208.445H792.164ZM796.5 206.941H800.035V203.328H796.5V206.941ZM823.18 198.035V199.559H820.465V208.641H818.609V191.16H820.465V198.035H823.18ZM807.496 204.246V192.859H809.332V202.703C811.773 202.693 814.322 202.488 817.105 201.922L817.32 203.484C814.322 204.08 811.568 204.256 808.941 204.246H807.496ZM840.133 204.93V206.473H824.117V204.93H827.945V200.359C826.51 199.568 825.631 198.318 825.641 196.746C825.631 193.992 828.336 192.186 832.086 192.176C835.846 192.186 838.551 193.992 838.551 196.746C838.551 198.289 837.711 199.529 836.305 200.32V204.93H840.133ZM827.438 196.746C827.438 198.621 829.342 199.842 832.086 199.852C834.811 199.842 836.744 198.621 836.754 196.746C836.744 194.861 834.811 193.66 832.086 193.66C829.342 193.66 827.438 194.861 827.438 196.746ZM829.781 204.93H834.43V201.043C833.717 201.209 832.926 201.297 832.086 201.297C831.266 201.297 830.484 201.209 829.781 201.043V204.93ZM844.273 202.801C844.303 200.242 845.055 199.461 846.344 198.66C847.164 198.162 847.789 197.439 847.789 196.414C847.789 195.193 846.852 194.422 845.68 194.422C844.625 194.422 843.6 195.066 843.512 196.512H841.402C841.48 194.021 843.355 192.664 845.68 192.664C848.219 192.664 849.918 194.188 849.918 196.414C849.918 197.986 849.166 199.031 847.926 199.793C846.754 200.506 846.295 201.209 846.266 202.801V202.918H844.273V202.801ZM843.961 205.75C843.951 204.988 844.586 204.363 845.348 204.363C846.1 204.363 846.725 204.988 846.734 205.75C846.725 206.512 846.1 207.127 845.348 207.137C844.586 207.127 843.951 206.512 843.961 205.75Z" fill="#475569"/>
<path d="M520.586 243.621C520.572 245.686 520.921 247.716 521.632 249.712C522.343 251.694 523.402 253.485 524.811 255.085C526.219 256.671 527.928 257.881 529.938 258.715L527.107 262.816C524.975 261.914 523.143 260.595 521.611 258.858C520.08 257.108 518.877 255.064 518.002 252.727C517.127 255.256 515.91 257.484 514.352 259.412C512.807 261.326 510.961 262.775 508.814 263.76L505.82 259.617C507.816 258.729 509.519 257.437 510.927 255.741C512.349 254.046 513.415 252.146 514.126 250.04C514.851 247.921 515.213 245.781 515.213 243.621V241.324H507.297V237.059H528.379V241.324H520.586V243.621ZM532.07 233.449H537.361V270.773H532.07V233.449ZM572.512 238.125V239.294C572.512 240.866 572.45 242.377 572.327 243.826C572.218 245.275 571.985 246.848 571.63 248.543H576.572V252.768H542.406V248.543H566.359C566.715 246.875 566.954 245.337 567.077 243.929C567.2 242.507 567.275 240.969 567.303 239.314H546.59V235.131H572.512V238.125ZM546.467 256.705H572.389V270.363H546.467V256.705ZM567.18 266.18V260.807H551.594V266.18H567.18ZM583.053 275.654H578.705L580.756 263.965H586.58L583.053 275.654ZM616.111 235.377C618.777 235.377 621.177 235.801 623.31 236.648C625.442 237.496 627.117 238.699 628.334 240.258C629.564 241.803 630.18 243.58 630.18 245.59C630.18 247.436 629.688 249.083 628.703 250.532C627.732 251.968 626.379 253.137 624.643 254.039C622.92 254.928 620.938 255.495 618.695 255.741V262.119H633.256V266.426H599.09V262.119H613.486V255.741C611.258 255.481 609.282 254.907 607.56 254.019C605.837 253.116 604.49 251.947 603.52 250.512C602.562 249.062 602.084 247.422 602.084 245.59C602.084 243.58 602.692 241.803 603.909 240.258C605.126 238.699 606.794 237.496 608.913 236.648C611.046 235.801 613.445 235.377 616.111 235.377ZM607.252 245.59C607.252 246.875 607.621 247.982 608.359 248.912C609.111 249.828 610.15 250.525 611.477 251.004C612.816 251.482 614.361 251.729 616.111 251.742C617.875 251.729 619.42 251.482 620.746 251.004C622.086 250.525 623.132 249.828 623.884 248.912C624.636 247.982 625.012 246.875 625.012 245.59C625.012 244.359 624.636 243.293 623.884 242.391C623.132 241.475 622.086 240.777 620.746 240.299C619.406 239.807 617.861 239.561 616.111 239.561C614.375 239.561 612.837 239.807 611.497 240.299C610.157 240.777 609.111 241.475 608.359 242.391C607.621 243.293 607.252 244.359 607.252 245.59ZM669.555 266.631H635.389V262.324H649.785V256.705H639.326V244.154H660.449V240.053H639.285V235.869H665.617V248.256H644.576V252.439H666.479V256.705H654.994V262.324H669.555V266.631ZM701.137 247.559H706.633V251.865H701.137V270.855H695.969V233.449H701.137V247.559ZM673.205 236.566H690.473V251.045H678.455V257.812C681.34 257.799 683.951 257.71 686.289 257.546C688.627 257.382 690.979 257.102 693.344 256.705L693.795 260.889C691.115 261.381 688.436 261.716 685.756 261.894C683.09 262.071 679.973 262.16 676.404 262.16H673.246V246.902H685.264V240.791H673.205V236.566ZM719.102 235.664C721.002 235.664 722.731 236.061 724.29 236.854C725.849 237.633 727.079 238.72 727.981 240.114C728.884 241.495 729.342 243.061 729.355 244.811C729.342 246.287 729.014 247.641 728.371 248.871C727.729 250.088 726.833 251.113 725.685 251.947C724.55 252.768 723.244 253.342 721.768 253.67V258.776C724.885 258.626 727.77 258.373 730.422 258.018L730.791 261.873C727.934 262.42 724.967 262.796 721.891 263.001C718.814 263.192 715.595 263.288 712.231 263.288C710.399 263.288 709.066 263.281 708.232 263.268L707.535 259.043C711.391 259.043 714.398 259.016 716.559 258.961V253.711C715.041 253.41 713.701 252.85 712.539 252.029C711.377 251.195 710.468 250.163 709.812 248.933C709.169 247.688 708.848 246.314 708.848 244.811C708.848 243.061 709.292 241.495 710.181 240.114C711.069 238.72 712.293 237.633 713.852 236.854C715.41 236.061 717.16 235.664 719.102 235.664ZM713.975 244.811C713.975 245.768 714.193 246.602 714.631 247.312C715.068 248.023 715.677 248.57 716.456 248.953C717.235 249.336 718.117 249.527 719.102 249.527C720.072 249.527 720.94 249.336 721.706 248.953C722.485 248.57 723.094 248.023 723.531 247.312C723.969 246.602 724.188 245.768 724.188 244.811C724.188 243.84 723.969 243.006 723.531 242.309C723.094 241.598 722.485 241.058 721.706 240.688C720.94 240.306 720.072 240.107 719.102 240.094C718.117 240.107 717.235 240.306 716.456 240.688C715.677 241.058 715.068 241.598 714.631 242.309C714.193 243.006 713.975 243.84 713.975 244.811ZM732.391 233.449H737.641V248.092H742.727V252.48H737.641V270.773H732.391V233.449ZM768.484 241.898C768.471 244.236 768.819 246.492 769.53 248.666C770.241 250.84 771.308 252.774 772.729 254.47C774.151 256.165 775.881 257.443 777.918 258.305L774.842 262.488C772.764 261.545 770.973 260.191 769.469 258.428C767.979 256.664 766.796 254.593 765.921 252.214C765.06 254.812 763.85 257.074 762.291 259.002C760.732 260.916 758.846 262.379 756.631 263.391L753.473 259.043C755.578 258.154 757.355 256.835 758.805 255.085C760.268 253.321 761.361 251.305 762.086 249.035C762.811 246.752 763.18 244.373 763.193 241.898V236.32H768.484V241.898ZM779.928 233.449H785.219V270.855H779.928V233.449ZM811.469 239.807H804.045C804.059 241.324 804.373 242.787 804.988 244.195C805.617 245.59 806.581 246.854 807.88 247.989C809.179 249.11 810.799 249.979 812.74 250.594L810.074 254.654C808.051 253.998 806.314 253.041 804.865 251.783C803.43 250.512 802.295 249.021 801.461 247.312C800.6 249.186 799.41 250.812 797.893 252.193C796.389 253.561 794.584 254.586 792.479 255.27L789.689 251.25C791.672 250.607 793.34 249.691 794.693 248.502C796.047 247.312 797.052 245.966 797.708 244.462C798.378 242.958 798.727 241.406 798.754 239.807H791.125V235.623H811.469V239.807ZM794.734 257.566H819.877V270.773H814.627V261.709H794.734V257.566ZM814.627 233.449H819.877V242.514H824.922V246.861H819.877V255.967H814.627V233.449ZM856.012 248.051H861.508V252.357H856.012V270.773H850.844V233.449H856.012V248.051ZM826.357 239.027H834.807V234.023H840.057V239.027H848.301V243.211H826.357V239.027ZM827.875 254.203C827.875 252.494 828.285 250.963 829.105 249.609C829.926 248.256 831.061 247.203 832.51 246.451C833.973 245.686 835.613 245.303 837.432 245.303C839.223 245.303 840.843 245.686 842.292 246.451C843.741 247.203 844.876 248.256 845.696 249.609C846.53 250.963 846.947 252.494 846.947 254.203C846.947 255.912 846.53 257.443 845.696 258.797C844.876 260.137 843.741 261.189 842.292 261.955C840.843 262.721 839.223 263.104 837.432 263.104C835.613 263.104 833.973 262.721 832.51 261.955C831.061 261.189 829.926 260.137 829.105 258.797C828.285 257.443 827.875 255.912 827.875 254.203ZM832.879 254.203C832.879 255.146 833.07 255.967 833.453 256.664C833.85 257.361 834.39 257.895 835.073 258.264C835.757 258.633 836.543 258.811 837.432 258.797C838.307 258.811 839.086 258.633 839.77 258.264C840.453 257.895 840.986 257.361 841.369 256.664C841.752 255.967 841.943 255.146 841.943 254.203C841.943 253.26 841.752 252.439 841.369 251.742C840.986 251.045 840.453 250.505 839.77 250.122C839.086 249.739 838.307 249.541 837.432 249.527C836.543 249.541 835.757 249.739 835.073 250.122C834.39 250.505 833.85 251.045 833.453 251.742C833.07 252.439 832.879 253.26 832.879 254.203ZM874.838 242.842C874.824 246.178 875.351 249.22 876.417 251.968C877.483 254.716 879.213 256.855 881.605 258.387L878.775 262.447C875.781 260.643 873.628 257.642 872.315 253.444C871.618 255.646 870.695 257.587 869.547 259.269C868.398 260.95 867.004 262.283 865.363 263.268L862.164 259.412C864.775 257.799 866.689 255.536 867.906 252.624C869.137 249.712 869.752 246.533 869.752 243.088V236.648H874.838V242.842ZM877.668 246.041H882.508V233.982H887.389V269.051H882.508V250.307H877.668V246.041ZM890.219 233.449H895.223V270.773H890.219V233.449ZM933.326 266.426H899.16V262.119H906.789V252.973C905.312 252.084 904.171 250.99 903.364 249.691C902.558 248.379 902.154 246.916 902.154 245.303C902.154 243.32 902.756 241.57 903.959 240.053C905.162 238.535 906.823 237.359 908.942 236.525C911.075 235.678 913.488 235.254 916.182 235.254C918.861 235.254 921.268 235.678 923.4 236.525C925.533 237.359 927.208 238.535 928.425 240.053C929.642 241.57 930.25 243.32 930.25 245.303C930.236 246.889 929.84 248.324 929.061 249.609C928.281 250.895 927.174 251.981 925.738 252.87V262.119H933.326V266.426ZM907.322 245.303C907.322 246.506 907.685 247.552 908.409 248.44C909.147 249.329 910.18 250.013 911.506 250.491C912.846 250.97 914.404 251.209 916.182 251.209C917.932 251.209 919.477 250.97 920.816 250.491C922.156 250.013 923.202 249.329 923.954 248.44C924.706 247.552 925.082 246.506 925.082 245.303C925.082 244.072 924.706 243.013 923.954 242.124C923.216 241.235 922.177 240.559 920.837 240.094C919.497 239.615 917.945 239.383 916.182 239.396C914.404 239.396 912.846 239.629 911.506 240.094C910.18 240.559 909.147 241.235 908.409 242.124C907.685 243.013 907.322 244.072 907.322 245.303ZM920.447 262.119V254.859C919.08 255.133 917.658 255.27 916.182 255.27C914.746 255.27 913.338 255.14 911.957 254.88V262.119H920.447Z" fill="#0F1A2A"/>
<g filter="url(#filter0_d_829_26)">
<rect x="601" y="343" width="237" height="91" rx="10" fill="#776BFF"/>
<path d="M672.797 377.992V398.992H670.664V388.141H667.945V397.914H665.906V378.414H667.945V386.312H670.664V377.992H672.797ZM655.477 393.953V380.523H663.352V382.328H657.703V392.055C660.281 392.043 662.227 391.926 664.477 391.492L664.641 393.32C662.121 393.848 659.941 393.93 656.883 393.953H655.477ZM691.969 377.992V386.781H695.133V388.656H691.969V398.992H689.742V377.992H691.969ZM675.258 393.273C676.91 393.273 678.832 393.273 680.836 393.215V391.082C678.469 390.73 676.922 389.301 676.945 387.273C676.922 384.906 678.973 383.348 681.961 383.336C684.938 383.348 687.012 384.906 687.023 387.273C687.012 389.301 685.441 390.742 683.062 391.082V393.133C684.926 393.039 686.801 392.887 688.547 392.641L688.688 394.281C684.141 395.09 679.23 395.137 675.609 395.125L675.258 393.273ZM675.656 382.258V380.477H680.836V378.039H683.062V380.477H688.242V382.258H675.656ZM679.031 387.273C679.031 388.609 680.203 389.441 681.961 389.43C683.719 389.441 684.879 388.609 684.891 387.273C684.879 385.926 683.719 385.07 681.961 385.07C680.203 385.07 679.031 385.926 679.031 387.273ZM712.617 377.992V386.5H715.992V388.352H712.617V398.992H710.414V377.992H712.617ZM696.141 383.102V381.273H701.32V378.273H703.547V381.273H708.586V383.102H696.141ZM697.219 389.523C697.219 386.664 699.422 384.648 702.445 384.648C705.457 384.648 707.66 386.664 707.672 389.523C707.66 392.406 705.457 394.41 702.445 394.422C699.422 394.41 697.219 392.406 697.219 389.523ZM699.352 389.523C699.34 391.352 700.652 392.57 702.445 392.547C704.227 392.57 705.527 391.352 705.539 389.523C705.527 387.73 704.227 386.488 702.445 386.477C700.652 386.488 699.34 387.73 699.352 389.523ZM734.484 377.992V399.039H732.281V387.742H728.438V385.891H732.281V377.992H734.484ZM717.727 381.695V379.891H727.195V387.391H720V392.172C723.352 392.148 725.93 392.043 728.859 391.516L729.047 393.344C725.906 393.895 723.141 394.023 719.438 394.047H717.773V385.586H725.039V381.695H717.727ZM759.961 377.992V386.359H763.219V388.211H759.961V398.969H757.734V377.992H759.961ZM743.625 393.367C748.887 390.742 751.746 386.945 752.203 382.047H744.68V380.195H754.477C754.453 386.266 751.781 391.691 744.867 395.102L743.625 393.367ZM781.805 377.992V398.992H779.555V377.992H781.805ZM764.555 393.367C770.133 390.707 772.863 386.922 773.297 382.023H765.562V380.242H775.547C775.547 386.395 772.934 391.715 765.727 395.172L764.555 393.367Z" fill="white"/>
</g>
<defs>
<filter id="filter0_d_829_26" x="569.1" y="341.1" width="300.8" height="154.8" filterUnits="userSpaceOnUse" color-interpolation-filters="sRGB">
<feFlood flood-opacity="0" result="BackgroundImageFix"/>
<feColorMatrix in="SourceAlpha" type="matrix" values="0 0 0 0 0 0 0 0 0 0 0 0 0 0 0 0 0 0 127 0" result="hardAlpha"/>
<feMorphology radius="28" operator="erode" in="SourceAlpha" result="effect1_dropShadow_829_26"/>
<feOffset dy="30"/>
<feGaussianBlur stdDeviation="29.95"/>
<feComposite in2="hardAlpha" operator="out"/>
<feColorMatrix type="matrix" values="0 0 0 0 0.52549 0 0 0 0 0.517647 0 0 0 0 0.635294 0 0 0 1 0"/>
<feBlend mode="normal" in2="BackgroundImageFix" result="effect1_dropShadow_829_26"/>
<feBlend mode="normal" in="SourceGraphic" in2="effect1_dropShadow_829_26" result="shape"/>
</filter>
<radialGradient id="paint0_radial_829_26" cx="0" cy="0" r="1" gradientUnits="userSpaceOnUse" gradientTransform="translate(720 320) rotate(90) scale(320 720)">
<stop stop-color="white"/>
<stop offset="1" stop-color="#CECAFF"/>
</radialGradient>
</defs>
</svg>
