<svg width="1440" height="640" viewBox="0 0 1440 640" fill="none" xmlns="http://www.w3.org/2000/svg">
<rect width="1440" height="640" fill="white"/>
<path d="M601.038 471.076C585.58 462.43 585.349 437.688 598.529 430.751L692.122 386.122C707.606 377.183 732.71 377.183 748.194 386.122L841.093 430.289C855.43 437.457 854.762 462.137 839.278 471.076L748.194 523.659C732.71 532.598 707.606 532.598 692.122 523.659L601.038 471.076Z" fill="#776BFF"/>
<g filter="url(#filter0_d_829_26)">
<rect x="1.20155" width="168.531" height="168.531" rx="31.679" transform="matrix(0.866043 -0.49997 0.866043 0.49997 573.161 445.779)" fill="url(#paint0_linear_829_26)" stroke="url(#paint1_linear_829_26)" stroke-width="1.3874"/>
</g>
<g filter="url(#filter1_d_829_26)">
<path d="M607.501 415.618L676.221 375.946C698.341 363.176 734.205 363.176 756.325 375.946L825.045 415.618L732.294 469.163C723.446 474.271 709.1 474.271 700.252 469.163L607.501 415.618Z" fill="#776BFF"/>
</g>
<g filter="url(#filter2_b_829_26)">
<path d="M601.129 411.879C585.671 403.234 585.44 378.492 598.62 371.555L692.213 326.925C707.697 317.986 732.801 317.986 748.285 326.925L841.184 371.092C855.521 378.26 854.853 402.94 839.369 411.879L748.285 464.462C732.801 473.401 707.697 473.401 692.213 464.462L601.129 411.879Z" fill="white" fill-opacity="0.5"/>
</g>
<g filter="url(#filter3_b_829_26)">
<rect x="1.20155" width="168.531" height="168.531" rx="31.679" transform="matrix(0.866043 -0.49997 0.866043 0.49997 573.253 386.58)" fill="white" fill-opacity="0.5" stroke="url(#paint2_linear_829_26)" stroke-width="1.3874"/>
</g>
<path opacity="0.8" d="M576.012 143.449V151.32H567.828V143.449H576.012ZM569.332 154.895V153.41H580.895V159.68H579.039V154.895H569.332ZM569.645 149.836H574.195V144.914H569.645V149.836ZM579.039 152.531V142.16H580.895V146.594H583.434V148.137H580.895V152.531H579.039ZM599.02 142.18V155.07H597.164V150.52H592.818C591.998 151.506 590.729 152.102 589.273 152.102C586.637 152.102 584.674 150.256 584.684 147.688C584.674 145.1 586.637 143.254 589.273 143.234C590.719 143.244 591.979 143.84 592.799 144.816H597.164V142.18H599.02ZM586.461 147.688C586.451 149.338 587.633 150.471 589.273 150.461C590.846 150.471 592.047 149.338 592.047 147.688C592.047 146.037 590.846 144.904 589.273 144.895C587.633 144.904 586.451 146.037 586.461 147.688ZM587.652 159.289V153.723H589.508V157.785H599.488V159.289H587.652ZM593.619 146.32C593.756 146.75 593.824 147.199 593.824 147.688C593.824 148.156 593.756 148.605 593.629 149.016H597.164V146.32H593.619ZM615.348 142.16V149.25H618.16V150.793H615.348V159.66H613.512V142.16H615.348ZM601.617 146.418V144.895H605.934V142.395H607.789V144.895H611.988V146.418H601.617ZM602.516 151.77C602.516 149.387 604.352 147.707 606.871 147.707C609.381 147.707 611.217 149.387 611.227 151.77C611.217 154.172 609.381 155.842 606.871 155.852C604.352 155.842 602.516 154.172 602.516 151.77ZM604.293 151.77C604.283 153.293 605.377 154.309 606.871 154.289C608.355 154.309 609.439 153.293 609.449 151.77C609.439 150.275 608.355 149.24 606.871 149.23C605.377 149.24 604.283 150.275 604.293 151.77ZM634.039 142.16V159.66H632.281V142.16H634.039ZM618.941 154.602C622.652 152.395 624.43 149.455 624.752 145.852H619.762V144.328H626.598C626.588 146.037 626.354 147.668 625.816 149.191H628.59V142.609H630.348V158.801H628.59V150.676H625.172C624.137 152.707 622.467 154.484 619.996 155.93L618.941 154.602ZM647.242 146.613C647.223 149.709 649.029 152.883 651.637 154.152L650.484 155.637C648.58 154.641 647.105 152.688 646.334 150.354C645.553 152.834 644.02 154.934 642.027 155.969L640.875 154.465C643.561 153.176 645.377 149.816 645.387 146.613V143.625H647.242V146.613ZM652.945 159.66V142.16H654.801V149.133H657.613V150.715H654.801V159.66H652.945ZM672.926 142.16V159.66H671.07V142.16H672.926ZM658.551 154.895C659.996 154.885 661.637 154.875 663.355 154.836V153.078C661.314 152.805 659.986 151.604 659.996 149.895C659.986 147.922 661.705 146.623 664.234 146.613C666.793 146.623 668.541 147.922 668.551 149.895C668.541 151.584 667.223 152.775 665.191 153.068V154.768C666.812 154.689 668.453 154.572 669.996 154.367L670.133 155.754C666.246 156.398 662.008 156.447 658.805 156.438L658.551 154.895ZM658.922 145.734V144.25H663.355V142.199H665.211V144.25H669.605V145.734H658.922ZM661.754 149.895C661.734 151.008 662.77 151.701 664.234 151.691C665.748 151.701 666.773 151.008 666.773 149.895C666.773 148.771 665.748 148.059 664.234 148.059C662.77 148.059 661.734 148.771 661.754 149.895ZM696.617 151.008V152.512H689.664V155.91H687.828V152.512H680.602V151.008H696.617ZM682.594 159.289V154.25H684.449V157.785H694.84V159.289H682.594ZM682.652 149.191V142.98H694.547V149.191H682.652ZM684.469 147.727H692.711V144.445H684.469V147.727ZM712.926 142.16V159.66H711.148V142.16H712.926ZM697.652 154.836C700.133 153.342 701.393 150.158 701.402 147.043V145.637H698.18V144.133H706.188V145.637H703.18V147.043C703.18 150.031 704.391 153.029 706.852 154.445L705.738 155.812C704.068 154.816 702.926 153.029 702.311 150.92C701.686 153.205 700.494 155.158 698.785 156.223L697.652 154.836ZM704.898 149.875V148.352H707.613V142.531H709.371V158.781H707.613V149.875H704.898ZM731.188 150.188V151.613H715.172V150.188H731.188ZM717.066 154.172V152.844H729.215V156.691H718.941V158.137H729.762V159.445H717.086V155.461H727.379V154.172H717.066ZM717.184 143.918V142.609H729.176V146.398H719.059V147.727H729.469V149.035H717.223V145.168H727.32V143.918H717.184ZM746.012 145.051V146.555H737.32V145.051H740.758V142.668H742.594V145.051H746.012ZM737.887 151.633C737.877 149.279 739.479 147.609 741.676 147.609C743.893 147.609 745.475 149.279 745.484 151.633C745.475 154.025 743.893 155.705 741.676 155.695C739.479 155.705 737.877 154.025 737.887 151.633ZM739.527 151.633C739.518 153.117 740.416 154.113 741.676 154.113C742.936 154.113 743.844 153.117 743.844 151.633C743.844 150.178 742.936 149.162 741.676 149.152C740.416 149.162 739.518 150.178 739.527 151.633ZM746.812 158.84V142.551H748.57V149.445H750.582V142.16H752.34V159.66H750.582V150.969H748.57V158.84H746.812ZM769.234 142.16V151.066H767.379V149.387H762.945V147.941H767.379V146.047H763.16C762.076 148.762 759.43 150.559 755.562 151.457L754.918 149.934C759.117 149.006 761.383 147.053 761.686 144.484H755.836V142.961H763.727C763.727 143.527 763.678 144.064 763.58 144.582H767.379V142.16H769.234ZM757.789 153.273V151.809H769.234V156.242H759.664V158H769.762V159.484H757.828V154.836H767.379V153.273H757.789ZM785.562 142.16V149.25H788.375V150.793H785.562V159.66H783.727V142.16H785.562ZM771.832 146.418V144.895H776.148V142.395H778.004V144.895H782.203V146.418H771.832ZM772.73 151.77C772.73 149.387 774.566 147.707 777.086 147.707C779.596 147.707 781.432 149.387 781.441 151.77C781.432 154.172 779.596 155.842 777.086 155.852C774.566 155.842 772.73 154.172 772.73 151.77ZM774.508 151.77C774.498 153.293 775.592 154.309 777.086 154.289C778.57 154.309 779.654 153.293 779.664 151.77C779.654 150.275 778.57 149.24 777.086 149.23C775.592 149.24 774.498 150.275 774.508 151.77ZM803.375 143.84V145.559C803.365 147.717 803.365 150.139 802.711 153.723L800.836 153.527C801.51 150.139 801.51 147.658 801.52 145.559V145.344H790.895V143.84H803.375ZM789.215 157.297V155.754H795.289V149.582H797.125V155.754H805.172V157.297H789.215ZM825.895 142.18V151.887H824.039V142.18H825.895ZM811.441 150.09C814.176 149.191 815.846 146.926 815.855 144.504V142.805H817.75V144.504C817.74 146.818 819.42 148.957 822.105 149.777L821.207 151.242C819.156 150.578 817.613 149.201 816.812 147.434C816.021 149.338 814.459 150.842 812.359 151.555L811.441 150.09ZM814 159.445V157.941H816.5V154.328H814.156V152.844H826.012V154.328H823.707V157.941H826.188V159.445H814ZM818.336 157.941H821.871V154.328H818.336V157.941ZM845.016 149.035V150.559H842.301V159.641H840.445V142.16H842.301V149.035H845.016ZM829.332 155.246V143.859H831.168V153.703C833.609 153.693 836.158 153.488 838.941 152.922L839.156 154.484C836.158 155.08 833.404 155.256 830.777 155.246H829.332ZM861.969 155.93V157.473H845.953V155.93H849.781V151.359C848.346 150.568 847.467 149.318 847.477 147.746C847.467 144.992 850.172 143.186 853.922 143.176C857.682 143.186 860.387 144.992 860.387 147.746C860.387 149.289 859.547 150.529 858.141 151.32V155.93H861.969ZM849.273 147.746C849.273 149.621 851.178 150.842 853.922 150.852C856.646 150.842 858.58 149.621 858.59 147.746C858.58 145.861 856.646 144.66 853.922 144.66C851.178 144.66 849.273 145.861 849.273 147.746ZM851.617 155.93H856.266V152.043C855.553 152.209 854.762 152.297 853.922 152.297C853.102 152.297 852.32 152.209 851.617 152.043V155.93ZM866.109 153.801C866.139 151.242 866.891 150.461 868.18 149.66C869 149.162 869.625 148.439 869.625 147.414C869.625 146.193 868.688 145.422 867.516 145.422C866.461 145.422 865.436 146.066 865.348 147.512H863.238C863.316 145.021 865.191 143.664 867.516 143.664C870.055 143.664 871.754 145.188 871.754 147.414C871.754 148.986 871.002 150.031 869.762 150.793C868.59 151.506 868.131 152.209 868.102 153.801V153.918H866.109V153.801ZM865.797 156.75C865.787 155.988 866.422 155.363 867.184 155.363C867.936 155.363 868.561 155.988 868.57 156.75C868.561 157.512 867.936 158.127 867.184 158.137C866.422 158.127 865.787 157.512 865.797 156.75Z" fill="#475569"/>
<path d="M520.586 194.621C520.572 196.686 520.921 198.716 521.632 200.712C522.343 202.694 523.402 204.485 524.811 206.085C526.219 207.671 527.928 208.881 529.938 209.715L527.107 213.816C524.975 212.914 523.143 211.595 521.611 209.858C520.08 208.108 518.877 206.064 518.002 203.727C517.127 206.256 515.91 208.484 514.352 210.412C512.807 212.326 510.961 213.775 508.814 214.76L505.82 210.617C507.816 209.729 509.519 208.437 510.927 206.741C512.349 205.046 513.415 203.146 514.126 201.04C514.851 198.921 515.213 196.781 515.213 194.621V192.324H507.297V188.059H528.379V192.324H520.586V194.621ZM532.07 184.449H537.361V221.773H532.07V184.449ZM572.512 189.125V190.294C572.512 191.866 572.45 193.377 572.327 194.826C572.218 196.275 571.985 197.848 571.63 199.543H576.572V203.768H542.406V199.543H566.359C566.715 197.875 566.954 196.337 567.077 194.929C567.2 193.507 567.275 191.969 567.303 190.314H546.59V186.131H572.512V189.125ZM546.467 207.705H572.389V221.363H546.467V207.705ZM567.18 217.18V211.807H551.594V217.18H567.18ZM583.053 226.654H578.705L580.756 214.965H586.58L583.053 226.654ZM616.111 186.377C618.777 186.377 621.177 186.801 623.31 187.648C625.442 188.496 627.117 189.699 628.334 191.258C629.564 192.803 630.18 194.58 630.18 196.59C630.18 198.436 629.688 200.083 628.703 201.532C627.732 202.968 626.379 204.137 624.643 205.039C622.92 205.928 620.938 206.495 618.695 206.741V213.119H633.256V217.426H599.09V213.119H613.486V206.741C611.258 206.481 609.282 205.907 607.56 205.019C605.837 204.116 604.49 202.947 603.52 201.512C602.562 200.062 602.084 198.422 602.084 196.59C602.084 194.58 602.692 192.803 603.909 191.258C605.126 189.699 606.794 188.496 608.913 187.648C611.046 186.801 613.445 186.377 616.111 186.377ZM607.252 196.59C607.252 197.875 607.621 198.982 608.359 199.912C609.111 200.828 610.15 201.525 611.477 202.004C612.816 202.482 614.361 202.729 616.111 202.742C617.875 202.729 619.42 202.482 620.746 202.004C622.086 201.525 623.132 200.828 623.884 199.912C624.636 198.982 625.012 197.875 625.012 196.59C625.012 195.359 624.636 194.293 623.884 193.391C623.132 192.475 622.086 191.777 620.746 191.299C619.406 190.807 617.861 190.561 616.111 190.561C614.375 190.561 612.837 190.807 611.497 191.299C610.157 191.777 609.111 192.475 608.359 193.391C607.621 194.293 607.252 195.359 607.252 196.59ZM669.555 217.631H635.389V213.324H649.785V207.705H639.326V195.154H660.449V191.053H639.285V186.869H665.617V199.256H644.576V203.439H666.479V207.705H654.994V213.324H669.555V217.631ZM701.137 198.559H706.633V202.865H701.137V221.855H695.969V184.449H701.137V198.559ZM673.205 187.566H690.473V202.045H678.455V208.812C681.34 208.799 683.951 208.71 686.289 208.546C688.627 208.382 690.979 208.102 693.344 207.705L693.795 211.889C691.115 212.381 688.436 212.716 685.756 212.894C683.09 213.071 679.973 213.16 676.404 213.16H673.246V197.902H685.264V191.791H673.205V187.566ZM719.102 186.664C721.002 186.664 722.731 187.061 724.29 187.854C725.849 188.633 727.079 189.72 727.981 191.114C728.884 192.495 729.342 194.061 729.355 195.811C729.342 197.287 729.014 198.641 728.371 199.871C727.729 201.088 726.833 202.113 725.685 202.947C724.55 203.768 723.244 204.342 721.768 204.67V209.776C724.885 209.626 727.77 209.373 730.422 209.018L730.791 212.873C727.934 213.42 724.967 213.796 721.891 214.001C718.814 214.192 715.595 214.288 712.231 214.288C710.399 214.288 709.066 214.281 708.232 214.268L707.535 210.043C711.391 210.043 714.398 210.016 716.559 209.961V204.711C715.041 204.41 713.701 203.85 712.539 203.029C711.377 202.195 710.468 201.163 709.812 199.933C709.169 198.688 708.848 197.314 708.848 195.811C708.848 194.061 709.292 192.495 710.181 191.114C711.069 189.72 712.293 188.633 713.852 187.854C715.41 187.061 717.16 186.664 719.102 186.664ZM713.975 195.811C713.975 196.768 714.193 197.602 714.631 198.312C715.068 199.023 715.677 199.57 716.456 199.953C717.235 200.336 718.117 200.527 719.102 200.527C720.072 200.527 720.94 200.336 721.706 199.953C722.485 199.57 723.094 199.023 723.531 198.312C723.969 197.602 724.188 196.768 724.188 195.811C724.188 194.84 723.969 194.006 723.531 193.309C723.094 192.598 722.485 192.058 721.706 191.688C720.94 191.306 720.072 191.107 719.102 191.094C718.117 191.107 717.235 191.306 716.456 191.688C715.677 192.058 715.068 192.598 714.631 193.309C714.193 194.006 713.975 194.84 713.975 195.811ZM732.391 184.449H737.641V199.092H742.727V203.48H737.641V221.773H732.391V184.449ZM768.484 192.898C768.471 195.236 768.819 197.492 769.53 199.666C770.241 201.84 771.308 203.774 772.729 205.47C774.151 207.165 775.881 208.443 777.918 209.305L774.842 213.488C772.764 212.545 770.973 211.191 769.469 209.428C767.979 207.664 766.796 205.593 765.921 203.214C765.06 205.812 763.85 208.074 762.291 210.002C760.732 211.916 758.846 213.379 756.631 214.391L753.473 210.043C755.578 209.154 757.355 207.835 758.805 206.085C760.268 204.321 761.361 202.305 762.086 200.035C762.811 197.752 763.18 195.373 763.193 192.898V187.32H768.484V192.898ZM779.928 184.449H785.219V221.855H779.928V184.449ZM811.469 190.807H804.045C804.059 192.324 804.373 193.787 804.988 195.195C805.617 196.59 806.581 197.854 807.88 198.989C809.179 200.11 810.799 200.979 812.74 201.594L810.074 205.654C808.051 204.998 806.314 204.041 804.865 202.783C803.43 201.512 802.295 200.021 801.461 198.312C800.6 200.186 799.41 201.812 797.893 203.193C796.389 204.561 794.584 205.586 792.479 206.27L789.689 202.25C791.672 201.607 793.34 200.691 794.693 199.502C796.047 198.312 797.052 196.966 797.708 195.462C798.378 193.958 798.727 192.406 798.754 190.807H791.125V186.623H811.469V190.807ZM794.734 208.566H819.877V221.773H814.627V212.709H794.734V208.566ZM814.627 184.449H819.877V193.514H824.922V197.861H819.877V206.967H814.627V184.449ZM856.012 199.051H861.508V203.357H856.012V221.773H850.844V184.449H856.012V199.051ZM826.357 190.027H834.807V185.023H840.057V190.027H848.301V194.211H826.357V190.027ZM827.875 205.203C827.875 203.494 828.285 201.963 829.105 200.609C829.926 199.256 831.061 198.203 832.51 197.451C833.973 196.686 835.613 196.303 837.432 196.303C839.223 196.303 840.843 196.686 842.292 197.451C843.741 198.203 844.876 199.256 845.696 200.609C846.53 201.963 846.947 203.494 846.947 205.203C846.947 206.912 846.53 208.443 845.696 209.797C844.876 211.137 843.741 212.189 842.292 212.955C840.843 213.721 839.223 214.104 837.432 214.104C835.613 214.104 833.973 213.721 832.51 212.955C831.061 212.189 829.926 211.137 829.105 209.797C828.285 208.443 827.875 206.912 827.875 205.203ZM832.879 205.203C832.879 206.146 833.07 206.967 833.453 207.664C833.85 208.361 834.39 208.895 835.073 209.264C835.757 209.633 836.543 209.811 837.432 209.797C838.307 209.811 839.086 209.633 839.77 209.264C840.453 208.895 840.986 208.361 841.369 207.664C841.752 206.967 841.943 206.146 841.943 205.203C841.943 204.26 841.752 203.439 841.369 202.742C840.986 202.045 840.453 201.505 839.77 201.122C839.086 200.739 838.307 200.541 837.432 200.527C836.543 200.541 835.757 200.739 835.073 201.122C834.39 201.505 833.85 202.045 833.453 202.742C833.07 203.439 832.879 204.26 832.879 205.203ZM874.838 193.842C874.824 197.178 875.351 200.22 876.417 202.968C877.483 205.716 879.213 207.855 881.605 209.387L878.775 213.447C875.781 211.643 873.628 208.642 872.315 204.444C871.618 206.646 870.695 208.587 869.547 210.269C868.398 211.95 867.004 213.283 865.363 214.268L862.164 210.412C864.775 208.799 866.689 206.536 867.906 203.624C869.137 200.712 869.752 197.533 869.752 194.088V187.648H874.838V193.842ZM877.668 197.041H882.508V184.982H887.389V220.051H882.508V201.307H877.668V197.041ZM890.219 184.449H895.223V221.773H890.219V184.449ZM933.326 217.426H899.16V213.119H906.789V203.973C905.312 203.084 904.171 201.99 903.364 200.691C902.558 199.379 902.154 197.916 902.154 196.303C902.154 194.32 902.756 192.57 903.959 191.053C905.162 189.535 906.823 188.359 908.942 187.525C911.075 186.678 913.488 186.254 916.182 186.254C918.861 186.254 921.268 186.678 923.4 187.525C925.533 188.359 927.208 189.535 928.425 191.053C929.642 192.57 930.25 194.32 930.25 196.303C930.236 197.889 929.84 199.324 929.061 200.609C928.281 201.895 927.174 202.981 925.738 203.87V213.119H933.326V217.426ZM907.322 196.303C907.322 197.506 907.685 198.552 908.409 199.44C909.147 200.329 910.18 201.013 911.506 201.491C912.846 201.97 914.404 202.209 916.182 202.209C917.932 202.209 919.477 201.97 920.816 201.491C922.156 201.013 923.202 200.329 923.954 199.44C924.706 198.552 925.082 197.506 925.082 196.303C925.082 195.072 924.706 194.013 923.954 193.124C923.216 192.235 922.177 191.559 920.837 191.094C919.497 190.615 917.945 190.383 916.182 190.396C914.404 190.396 912.846 190.629 911.506 191.094C910.18 191.559 909.147 192.235 908.409 193.124C907.685 194.013 907.322 195.072 907.322 196.303ZM920.447 213.119V205.859C919.08 206.133 917.658 206.27 916.182 206.27C914.746 206.27 913.338 206.14 911.957 205.88V213.119H920.447Z" fill="#0F1A2A"/>
<g filter="url(#filter4_d_829_26)">
<rect x="602" y="295" width="237" height="91" rx="10" fill="#776BFF"/>
<path d="M673.797 329.992V350.992H671.664V340.141H668.945V349.914H666.906V330.414H668.945V338.312H671.664V329.992H673.797ZM656.477 345.953V332.523H664.352V334.328H658.703V344.055C661.281 344.043 663.227 343.926 665.477 343.492L665.641 345.32C663.121 345.848 660.941 345.93 657.883 345.953H656.477ZM692.969 329.992V338.781H696.133V340.656H692.969V350.992H690.742V329.992H692.969ZM676.258 345.273C677.91 345.273 679.832 345.273 681.836 345.215V343.082C679.469 342.73 677.922 341.301 677.945 339.273C677.922 336.906 679.973 335.348 682.961 335.336C685.938 335.348 688.012 336.906 688.023 339.273C688.012 341.301 686.441 342.742 684.062 343.082V345.133C685.926 345.039 687.801 344.887 689.547 344.641L689.688 346.281C685.141 347.09 680.23 347.137 676.609 347.125L676.258 345.273ZM676.656 334.258V332.477H681.836V330.039H684.062V332.477H689.242V334.258H676.656ZM680.031 339.273C680.031 340.609 681.203 341.441 682.961 341.43C684.719 341.441 685.879 340.609 685.891 339.273C685.879 337.926 684.719 337.07 682.961 337.07C681.203 337.07 680.031 337.926 680.031 339.273ZM713.617 329.992V338.5H716.992V340.352H713.617V350.992H711.414V329.992H713.617ZM697.141 335.102V333.273H702.32V330.273H704.547V333.273H709.586V335.102H697.141ZM698.219 341.523C698.219 338.664 700.422 336.648 703.445 336.648C706.457 336.648 708.66 338.664 708.672 341.523C708.66 344.406 706.457 346.41 703.445 346.422C700.422 346.41 698.219 344.406 698.219 341.523ZM700.352 341.523C700.34 343.352 701.652 344.57 703.445 344.547C705.227 344.57 706.527 343.352 706.539 341.523C706.527 339.73 705.227 338.488 703.445 338.477C701.652 338.488 700.34 339.73 700.352 341.523ZM735.484 329.992V351.039H733.281V339.742H729.438V337.891H733.281V329.992H735.484ZM718.727 333.695V331.891H728.195V339.391H721V344.172C724.352 344.148 726.93 344.043 729.859 343.516L730.047 345.344C726.906 345.895 724.141 346.023 720.438 346.047H718.773V337.586H726.039V333.695H718.727ZM760.961 329.992V338.359H764.219V340.211H760.961V350.969H758.734V329.992H760.961ZM744.625 345.367C749.887 342.742 752.746 338.945 753.203 334.047H745.68V332.195H755.477C755.453 338.266 752.781 343.691 745.867 347.102L744.625 345.367ZM782.805 329.992V350.992H780.555V329.992H782.805ZM765.555 345.367C771.133 342.707 773.863 338.922 774.297 334.023H766.562V332.242H776.547C776.547 338.395 773.934 343.715 766.727 347.172L765.555 345.367Z" fill="white"/>
</g>
<defs>
<filter id="filter0_d_829_26" x="552.425" y="369.706" width="335.462" height="234.19" filterUnits="userSpaceOnUse" color-interpolation-filters="sRGB">
<feFlood flood-opacity="0" result="BackgroundImageFix"/>
<feColorMatrix in="SourceAlpha" type="matrix" values="0 0 0 0 0 0 0 0 0 0 0 0 0 0 0 0 0 0 127 0" result="hardAlpha"/>
<feOffset dy="46.2468"/>
<feGaussianBlur stdDeviation="18.4987"/>
<feComposite in2="hardAlpha" operator="out"/>
<feColorMatrix type="matrix" values="0 0 0 0 0.469338 0 0 0 0 0.45864 0 0 0 0 0.592359 0 0 0 1 0"/>
<feBlend mode="normal" in2="BackgroundImageFix" result="effect1_dropShadow_829_26"/>
<feBlend mode="normal" in="SourceGraphic" in2="effect1_dropShadow_829_26" result="shape"/>
</filter>
<filter id="filter1_d_829_26" x="587.152" y="361.744" width="258.241" height="147.322" filterUnits="userSpaceOnUse" color-interpolation-filters="sRGB">
<feFlood flood-opacity="0" result="BackgroundImageFix"/>
<feColorMatrix in="SourceAlpha" type="matrix" values="0 0 0 0 0 0 0 0 0 0 0 0 0 0 0 0 0 0 127 0" result="hardAlpha"/>
<feOffset dy="15.7239"/>
<feGaussianBlur stdDeviation="10.1743"/>
<feComposite in2="hardAlpha" operator="out"/>
<feColorMatrix type="matrix" values="0 0 0 0 0.465669 0 0 0 0 0.419206 0 0 0 0 1 0 0 0 1 0"/>
<feBlend mode="normal" in2="BackgroundImageFix" result="effect1_dropShadow_829_26"/>
<feBlend mode="normal" in="SourceGraphic" in2="effect1_dropShadow_829_26" result="shape"/>
</filter>
<filter id="filter2_b_829_26" x="570.612" y="301.722" width="299.366" height="187.943" filterUnits="userSpaceOnUse" color-interpolation-filters="sRGB">
<feFlood flood-opacity="0" result="BackgroundImageFix"/>
<feGaussianBlur in="BackgroundImageFix" stdDeviation="9.24935"/>
<feComposite in2="SourceAlpha" operator="in" result="effect1_backgroundBlur_829_26"/>
<feBlend mode="normal" in="SourceGraphic" in2="effect1_backgroundBlur_829_26" result="shape"/>
</filter>
<filter id="filter3_b_829_26" x="571.016" y="292.008" width="298.464" height="187.943" filterUnits="userSpaceOnUse" color-interpolation-filters="sRGB">
<feFlood flood-opacity="0" result="BackgroundImageFix"/>
<feGaussianBlur in="BackgroundImageFix" stdDeviation="9.24935"/>
<feComposite in2="SourceAlpha" operator="in" result="effect1_backgroundBlur_829_26"/>
<feBlend mode="normal" in="SourceGraphic" in2="effect1_backgroundBlur_829_26" result="shape"/>
</filter>
<filter id="filter4_d_829_26" x="570.1" y="293.1" width="300.8" height="154.8" filterUnits="userSpaceOnUse" color-interpolation-filters="sRGB">
<feFlood flood-opacity="0" result="BackgroundImageFix"/>
<feColorMatrix in="SourceAlpha" type="matrix" values="0 0 0 0 0 0 0 0 0 0 0 0 0 0 0 0 0 0 127 0" result="hardAlpha"/>
<feMorphology radius="28" operator="erode" in="SourceAlpha" result="effect1_dropShadow_829_26"/>
<feOffset dy="30"/>
<feGaussianBlur stdDeviation="29.95"/>
<feComposite in2="hardAlpha" operator="out"/>
<feColorMatrix type="matrix" values="0 0 0 0 0.52549 0 0 0 0 0.517647 0 0 0 0 0.635294 0 0 0 1 0"/>
<feBlend mode="normal" in2="BackgroundImageFix" result="effect1_dropShadow_829_26"/>
<feBlend mode="normal" in="SourceGraphic" in2="effect1_dropShadow_829_26" result="shape"/>
</filter>
<linearGradient id="paint0_linear_829_26" x1="31.8649" y1="142.219" x2="26.6597" y2="67.8741" gradientUnits="userSpaceOnUse">
<stop stop-color="#776BFF"/>
<stop offset="1" stop-color="#8562D0" stop-opacity="0"/>
</linearGradient>
<linearGradient id="paint1_linear_829_26" x1="14.7229" y1="69.1153" x2="89.3203" y2="139.08" gradientUnits="userSpaceOnUse">
<stop stop-color="white" stop-opacity="0.43"/>
<stop offset="0.846595" stop-color="white" stop-opacity="0.44"/>
<stop offset="1" stop-color="white" stop-opacity="0"/>
</linearGradient>
<linearGradient id="paint2_linear_829_26" x1="20.5082" y1="74.4382" x2="98.0778" y2="147.842" gradientUnits="userSpaceOnUse">
<stop stop-color="white" stop-opacity="0.09"/>
<stop offset="0.846595" stop-color="white" stop-opacity="0.79"/>
<stop offset="1" stop-color="white" stop-opacity="0.17"/>
</linearGradient>
</defs>
</svg>
