<svg width="37" height="49" viewBox="0 0 37 49" fill="none" xmlns="http://www.w3.org/2000/svg">
<rect width="23" height="23" transform="translate(7 15)" fill="white"/>
<path d="M0 0.5H37V48.5H0V0.5Z" fill="white"/>
<path fill-rule="evenodd" clip-rule="evenodd" d="M29.6009 25.2714C29.6009 24.4899 29.5307 23.7385 29.4005 23.0171H19.0209V27.2801H24.9521C24.6966 28.6578 23.9201 29.825 22.7529 30.6064V33.3717H26.3147C28.3986 31.453 29.6009 28.6277 29.6009 25.2714Z" fill="#4285F4"/>
<path fill-rule="evenodd" clip-rule="evenodd" d="M19.0209 36.0415C21.9965 36.0415 24.4912 35.0546 26.3146 33.3715L22.7529 30.6062C21.766 31.2675 20.5037 31.6582 19.0209 31.6582C16.1504 31.6582 13.7208 29.7195 12.8542 27.1146H9.17224V29.97C10.9857 33.5718 14.7127 36.0415 19.0209 36.0415Z" fill="#34A853"/>
<path fill-rule="evenodd" clip-rule="evenodd" d="M12.8542 27.1148C12.6338 26.4536 12.5085 25.7473 12.5085 25.0209C12.5085 24.2945 12.6338 23.5882 12.8542 22.9269V20.0715H9.17222C8.4258 21.5593 8 23.2425 8 25.0209C8 26.7993 8.4258 28.4824 9.17222 29.9702L12.8542 27.1148Z" fill="#FBBC05"/>
<path fill-rule="evenodd" clip-rule="evenodd" d="M19.0209 18.3833C20.6389 18.3833 22.0917 18.9393 23.2338 20.0314L26.3948 16.8704C24.4862 15.0921 21.9915 14 19.0209 14C14.7127 14 10.9857 16.4697 9.17224 20.0715L12.8542 22.9269C13.7208 20.3219 16.1504 18.3833 19.0209 18.3833Z" fill="#EA4335"/>
</svg>
